<svg xmlns="http://www.w3.org/2000/svg" viewBox="0 0 211.04 113.65"><defs><style>.cls-1{fill:#0b2432;}.cls-2{fill:#fff;}</style></defs><title>Recurso 2</title><g id="Capa_2" data-name="Capa 2"><g id="Capa_1-2" data-name="Capa 1"><path class="cls-1" d="M154.45,99.68c-1.36-4.82-6.28-3.93-10.63-9.71-2.7-3.58-3.47-7.46-4.16-10.94-1-4.91-.75-9.21-.38-9.26s.16,4.3,2.75,8.45c3,4.81,8.49,7.43,9.33,6.53.52-.56-.92-2.32-3.85-7.25-4-6.76-7-11.87-8.59-18a35,35,0,0,1-.58-13.64,21.84,21.84,0,0,0,2.28,7.46c2.68,5.27,9.49,8.12,9.49,8.12S142.26,49.2,139,43.71c-7.66-12.91-8.19-30.38-7.57-30.58.2-.06.62,1.77,2.55,4.07,1.25,1.5,3.17,3.23,3.65,2.87s-4.95-8.64-4.95-8.64a33.85,33.85,0,0,1-.46-7.94c-.45.21-.91.41-1.36.64a37.93,37.93,0,0,0-15.53,14.71l0,0,0,0-.65-.36a30.43,30.43,0,0,0-14-3.56h-.4a30.91,30.91,0,0,0-28.81,19.8l0,0,0,0a30.85,30.85,0,0,0-14.07-3.62h-.39a31,31,0,0,0-6.18.62,30.62,30.62,0,0,0-5.51,1.69A31,31,0,0,0,27.76,51.9v0h0a31.44,31.44,0,0,0-3.89.66A30.92,30.92,0,0,0,0,82.23a30.93,30.93,0,0,0,30.46,31.28h0c6.86.09,14,.13,21.71.13,16.29,0,32.81-.2,48.79-.4h.3c15.92-.19,32.38-.4,48.52-.4h3.09c.39-1.59.78-3.47,1.1-5.6C154.59,103.23,154.89,101.21,154.45,99.68Z"/><path class="cls-2" d="M22.68,66.32h6.18a5.29,5.29,0,0,1,3.58,1.11,4.23,4.23,0,0,1,0,6.07,5.26,5.26,0,0,1-3.57,1.12h-3.6v5.94H22.68Zm5.88,6.3a3.2,3.2,0,0,0,2-.55,1.91,1.91,0,0,0,.69-1.59,2,2,0,0,0-.68-1.61,3.2,3.2,0,0,0-2-.55h-3.3v4.3Z"/><path class="cls-2" d="M35.82,80.56V65.84H38.3V80.56Z"/><path class="cls-2" d="M50.7,70.46v10.1H48.24V78.94a3.25,3.25,0,0,1-1.32,1.31,4,4,0,0,1-2,.47,4.31,4.31,0,0,1-2.34-.64A4.23,4.23,0,0,1,41,78.26a6.33,6.33,0,0,1-.56-2.74,6.43,6.43,0,0,1,.57-2.77,4.46,4.46,0,0,1,1.59-1.88A4.13,4.13,0,0,1,45,70.2a4,4,0,0,1,2,.47A3.25,3.25,0,0,1,48.24,72V70.46ZM47.56,77.9a3.82,3.82,0,0,0,.68-2.42A3.89,3.89,0,0,0,47.56,73a2.33,2.33,0,0,0-1.94-.86,2.3,2.3,0,0,0-1.93.89A3.94,3.94,0,0,0,43,75.52a3.69,3.69,0,0,0,.69,2.4,2.38,2.38,0,0,0,2,.84A2.31,2.31,0,0,0,47.56,77.9Z"/><path class="cls-2" d="M56.6,72.34v4.52q0,1.78,1.66,1.78a3.53,3.53,0,0,0,1-.16v2a4.7,4.7,0,0,1-1.6.24,3.49,3.49,0,0,1-2.64-1A3.83,3.83,0,0,1,54.1,77V72.34H52.16V70.46H54.1V68l2.5-.84v3.3h2.68v1.88Z"/><path class="cls-2" d="M70.66,70.46v10.1H68.2V78.94a3.25,3.25,0,0,1-1.32,1.31,4,4,0,0,1-2,.47,4.31,4.31,0,0,1-2.34-.64A4.22,4.22,0,0,1,61,78.26a6.32,6.32,0,0,1-.56-2.74A6.43,6.43,0,0,1,61,72.75a4.46,4.46,0,0,1,1.59-1.88,4.13,4.13,0,0,1,2.32-.67,4,4,0,0,1,2,.47A3.25,3.25,0,0,1,68.2,72V70.46ZM67.52,77.9a3.82,3.82,0,0,0,.68-2.42A3.89,3.89,0,0,0,67.52,73a2.58,2.58,0,0,0-3.87,0A3.94,3.94,0,0,0,63,75.52a3.69,3.69,0,0,0,.69,2.4,2.38,2.38,0,0,0,2,.84A2.3,2.3,0,0,0,67.52,77.9Z"/><path class="cls-2" d="M76.54,69.6v.86H78.8v1.88H76.54v8.22H74V72.34H72.12V70.46H74v-1A3.89,3.89,0,0,1,75,66.71a3.4,3.4,0,0,1,2.61-1,4.53,4.53,0,0,1,1.58.24v2a4.12,4.12,0,0,0-1-.14Q76.54,67.82,76.54,69.6Z"/><path class="cls-2" d="M82.49,80.08a4.37,4.37,0,0,1-1.8-1.83,6.49,6.49,0,0,1,0-5.58,4.37,4.37,0,0,1,1.8-1.83,5.56,5.56,0,0,1,2.71-.64,5.46,5.46,0,0,1,2.68.64,4.39,4.39,0,0,1,1.79,1.83,6.49,6.49,0,0,1,0,5.58,4.39,4.39,0,0,1-1.79,1.83,5.46,5.46,0,0,1-2.68.64A5.55,5.55,0,0,1,82.49,80.08Zm4.64-2.15a4.86,4.86,0,0,0,0-4.94,2.62,2.62,0,0,0-3.86,0,4.86,4.86,0,0,0,0,4.94,2.34,2.34,0,0,0,1.93.83A2.36,2.36,0,0,0,87.13,77.93Z"/><path class="cls-2" d="M98.9,70.38l0,2.28a3.48,3.48,0,0,0-1.32-.26,2.5,2.5,0,0,0-2,.74,2.81,2.81,0,0,0-.67,2v5.46H92.46V73.32a22.94,22.94,0,0,0-.16-2.86h2.34l.2,1.78a3,3,0,0,1,1.2-1.5,3.39,3.39,0,0,1,1.86-.52A2.81,2.81,0,0,1,98.9,70.38Z"/><path class="cls-2" d="M114.78,71.23a4.88,4.88,0,0,1,.84,3.13v6.2h-2.5V74.44a3,3,0,0,0-.39-1.73,1.5,1.5,0,0,0-1.29-.53,2,2,0,0,0-1.63.73,3.11,3.11,0,0,0-.59,2v5.64h-2.5V74.44a2.86,2.86,0,0,0-.41-1.72,1.51,1.51,0,0,0-1.29-.54,2,2,0,0,0-1.64.73,3.07,3.07,0,0,0-.6,2v5.64H100.3V73.32a22.94,22.94,0,0,0-.16-2.86h2.34l.18,1.6a3.14,3.14,0,0,1,1.27-1.38,3.74,3.74,0,0,1,1.91-.48,2.88,2.88,0,0,1,3,1.92,3.49,3.49,0,0,1,1.37-1.41,3.93,3.93,0,0,1,2-.51A3.11,3.11,0,0,1,114.78,71.23Z"/><path class="cls-2" d="M127.94,70.46v10.1h-2.46V78.94a3.25,3.25,0,0,1-1.32,1.31,4,4,0,0,1-2,.47,4.31,4.31,0,0,1-2.34-.64,4.22,4.22,0,0,1-1.58-1.82,6.32,6.32,0,0,1-.56-2.74,6.43,6.43,0,0,1,.57-2.77,4.46,4.46,0,0,1,1.59-1.88,4.13,4.13,0,0,1,2.32-.67,4,4,0,0,1,2,.47A3.25,3.25,0,0,1,125.48,72V70.46ZM124.8,77.9a3.82,3.82,0,0,0,.68-2.42A3.89,3.89,0,0,0,124.8,73a2.58,2.58,0,0,0-3.87,0,3.94,3.94,0,0,0-.69,2.47,3.69,3.69,0,0,0,.69,2.4,2.38,2.38,0,0,0,2,.84A2.3,2.3,0,0,0,124.8,77.9Z"/><path class="cls-2" d="M39.34,88h3.82l-7.6,14.24h-3L27.2,88h3.9l3.38,9.58Z"/><path class="cls-2" d="M42.64,102.26l.8-10.16h3.62l-.8,10.16Zm1.1-15.14h3.8l-.26,3.26H43.5Z"/><path class="cls-2" d="M56.8,92.08l-.24,3.3a3.71,3.71,0,0,0-1.68-.4,2.67,2.67,0,0,0-1.72.5,2.3,2.3,0,0,0-.72,1.68l-.4,5.1H48.42L49,95q.08-1.4.08-2.1t0-.82h3.42l.06,1.44a3,3,0,0,1,1.27-1.23,3.85,3.85,0,0,1,1.83-.45A2.46,2.46,0,0,1,56.8,92.08Z"/><path class="cls-2" d="M62.94,98a1.32,1.32,0,0,0,.35,1.09,1.43,1.43,0,0,0,1,.37,4.77,4.77,0,0,0,1-.14l-.24,2.76a5.18,5.18,0,0,1-1.92.3,3.84,3.84,0,0,1-2.88-1,3.89,3.89,0,0,1-1-2.83c0-.24,0-.42,0-.54l.26-3.26h-1.9l.22-2.68h1.9L60,89.8l3.72-1.16-.28,3.46h2.44l-.2,2.68H63.2Z"/><path class="cls-2" d="M77.44,92.1l-.8,10.16H73.1l.1-1.14a3.42,3.42,0,0,1-1.34,1,4.66,4.66,0,0,1-1.8.34,3.28,3.28,0,0,1-2.52-.92,3.82,3.82,0,0,1-.86-2.7c0-.16,0-.41,0-.76l.44-5.94h3.66l-.48,5.72a2.12,2.12,0,0,0,.26,1.35,1.17,1.17,0,0,0,1,.47,1.48,1.48,0,0,0,1.2-.53,2.47,2.47,0,0,0,.5-1.45l.48-5.56Z"/><path class="cls-2" d="M90.3,92.1l-.8,10.16H85.92l.1-1.14a3.18,3.18,0,0,1-1.24,1,4.12,4.12,0,0,1-1.7.34,4.29,4.29,0,0,1-2.26-.59,4,4,0,0,1-1.53-1.69,5.76,5.76,0,0,1-.55-2.6,6.8,6.8,0,0,1,.62-3,4.88,4.88,0,0,1,1.73-2,4.5,4.5,0,0,1,2.53-.73,3.51,3.51,0,0,1,3,1.42l.1-1.14ZM85.8,99a3.22,3.22,0,0,0,.54-1.94,3,3,0,0,0-.5-1.89,1.73,1.73,0,0,0-1.44-.63,1.81,1.81,0,0,0-1.52.74,3.28,3.28,0,0,0-.56,2,2.74,2.74,0,0,0,.53,1.81,1.84,1.84,0,0,0,1.49.63A1.72,1.72,0,0,0,85.8,99Z"/><path class="cls-2" d="M91.66,102.26l1.18-14.72h3.62l-1.18,14.72Z"/><path class="cls-1" d="M209.78,63.86a38.83,38.83,0,0,0-2.23-6.26,39.54,39.54,0,0,0-21.77-20.54h0v0A37.59,37.59,0,0,0,175,11.44a38.11,38.11,0,0,0-4.58-4,156.15,156.15,0,0,1,4.74,16.27s-8.27,13.31-6.8,14.34c1.06.74,4.2-1.81,4.44-2a15.31,15.31,0,0,0,3.3-3.6,87.8,87.8,0,0,1,1.24,14.74c-.06,15.64-.21,16.76-1,18.63-3,7.23-9.31,10.92-8.19,12.69.7,1.1,3.68.52,3.9.48a9.69,9.69,0,0,0,4.14-1.91,27,27,0,0,1-4,9.28A38.41,38.41,0,0,1,160,97c.1-2,1.24-5,1.42-7.08.44-5,.51-9.78.7-14.25.14-3.26,0-12.85,0-12.85S161.18,50.15,160.7,46c-.59-5.13-2-15.34-3-20.41s-2.58-15.41-4.25-20.3c-.4-1.17-1.28-3.11-2.24-5.1L150.65.1c.44,1.83.7,3.43.72,3.57.33,2.3,2.07,7.35,4.45,19.9A274.23,274.23,0,0,1,160,59.71c.7,12.35,1.13,18.52.43,25.4a98.63,98.63,0,0,1-7.08,27.75c6.3,0,12.19.05,17.9.13h.52a39.26,39.26,0,0,0,38-49.13Z"/><path class="cls-2" d="M160,59.71a274.23,274.23,0,0,0-4.2-36.14C153.43,11,151.7,6,151.36,3.67c0-.14-.28-1.74-.72-3.57-.71,0-1.43-.08-2.15-.09H148a37.4,37.4,0,0,0-12.36,2.1c-1.16.4-2.29.88-3.4,1.4a33.85,33.85,0,0,0,.46,7.94s5.44,8.26,4.95,8.64-2.4-1.37-3.65-2.87c-1.93-2.3-2.35-4.14-2.55-4.07-.62.2-.09,17.66,7.57,30.58,3.26,5.5,11.11,17.74,11.11,17.74s-6.81-2.85-9.49-8.12a21.84,21.84,0,0,1-2.28-7.46,35,35,0,0,0,.58,13.64c1.55,6.12,4.58,11.23,8.59,18,2.93,4.93,4.37,6.69,3.85,7.25-.84.9-6.35-1.72-9.33-6.53-2.58-4.16-2.38-8.51-2.75-8.45s-.59,4.35.38,9.26c.69,3.48,1.46,7.36,4.16,10.94,4.35,5.78,9.27,4.88,10.63,9.71.43,1.53.14,3.54-.46,7.57-.31,2.13-.71,4-1.1,5.6h.45a98.63,98.63,0,0,0,7.08-27.75C161.14,78.23,160.71,72.06,160,59.71Z"/><path class="cls-2" d="M151.23.15c1,2,1.84,3.93,2.24,5.1,1.67,4.89,3.31,15.2,4.25,20.3s2.39,15.28,3,20.41c.48,4.19,1.39,16.83,1.39,16.83s.15,9.59,0,12.85c-.19,4.47-.26,9.24-.7,14.25C161.22,92,160.08,95,160,97a38.41,38.41,0,0,0,12.24-10.62,27,27,0,0,0,4-9.28A9.69,9.69,0,0,1,172.09,79c-.22,0-3.19.62-3.9-.48-1.13-1.77,5.16-5.46,8.19-12.69.78-1.87.93-3,1-18.63a87.8,87.8,0,0,0-1.24-14.74,15.31,15.31,0,0,1-3.3,3.6c-.24.2-3.38,2.76-4.44,2-1.47-1,6.8-14.34,6.8-14.34a156.15,156.15,0,0,0-4.74-16.27A37.36,37.36,0,0,0,151.23.15Z"/></g></g></svg>