<svg xmlns="http://www.w3.org/2000/svg" viewBox="0 0 434.61 113.65"><defs><style>.cls-1{fill:#0b2432;}.cls-2{fill:#fff;}</style></defs><title>Recurso 1</title><g id="Capa_2" data-name="Capa 2"><g id="Capa_1-2" data-name="Capa 1"><path class="cls-1" d="M154.45,99.68c-1.36-4.82-6.28-3.93-10.63-9.71-2.7-3.58-3.47-7.46-4.16-10.94-1-4.91-.75-9.21-.38-9.26s.16,4.3,2.75,8.45c3,4.81,8.49,7.43,9.33,6.53.52-.56-.92-2.32-3.85-7.25-4-6.76-7-11.87-8.59-18a35,35,0,0,1-.58-13.64,21.84,21.84,0,0,0,2.28,7.46c2.68,5.27,9.49,8.12,9.49,8.12S142.26,49.2,139,43.71c-7.66-12.91-8.19-30.38-7.57-30.58.2-.06.62,1.77,2.55,4.07,1.25,1.5,3.17,3.23,3.65,2.87s-4.95-8.64-4.95-8.64a33.85,33.85,0,0,1-.46-7.94c-.45.21-.91.41-1.36.64a37.93,37.93,0,0,0-15.53,14.71l0,0,0,0-.65-.36a30.43,30.43,0,0,0-14-3.56h-.4a30.91,30.91,0,0,0-28.81,19.8l0,0,0,0a30.85,30.85,0,0,0-14.07-3.62h-.39a31,31,0,0,0-6.18.62,30.62,30.62,0,0,0-5.51,1.69A31,31,0,0,0,27.76,51.9v0h0a31.44,31.44,0,0,0-3.89.66A30.92,30.92,0,0,0,0,82.23a30.93,30.93,0,0,0,30.46,31.28h0c6.86.09,14,.13,21.71.13,16.29,0,32.81-.2,48.79-.4h.3c15.92-.19,32.38-.4,48.52-.4h3.09c.39-1.59.78-3.47,1.1-5.6C154.59,103.23,154.89,101.21,154.45,99.68Z"/><path class="cls-2" d="M22.68,66.32h6.18a5.29,5.29,0,0,1,3.58,1.11,4.23,4.23,0,0,1,0,6.07,5.26,5.26,0,0,1-3.57,1.12h-3.6v5.94H22.68Zm5.88,6.3a3.2,3.2,0,0,0,2-.55,1.91,1.91,0,0,0,.69-1.59,2,2,0,0,0-.68-1.61,3.2,3.2,0,0,0-2-.55h-3.3v4.3Z"/><path class="cls-2" d="M35.82,80.56V65.84H38.3V80.56Z"/><path class="cls-2" d="M50.7,70.46v10.1H48.24V78.94a3.25,3.25,0,0,1-1.32,1.31,4,4,0,0,1-2,.47,4.31,4.31,0,0,1-2.34-.64A4.23,4.23,0,0,1,41,78.26a6.33,6.33,0,0,1-.56-2.74,6.43,6.43,0,0,1,.57-2.77,4.46,4.46,0,0,1,1.59-1.88A4.13,4.13,0,0,1,45,70.2a4,4,0,0,1,2,.47A3.25,3.25,0,0,1,48.24,72V70.46ZM47.56,77.9a3.82,3.82,0,0,0,.68-2.42A3.89,3.89,0,0,0,47.56,73a2.33,2.33,0,0,0-1.94-.86,2.3,2.3,0,0,0-1.93.89A3.94,3.94,0,0,0,43,75.52a3.69,3.69,0,0,0,.69,2.4,2.38,2.38,0,0,0,2,.84A2.31,2.31,0,0,0,47.56,77.9Z"/><path class="cls-2" d="M56.6,72.34v4.52q0,1.78,1.66,1.78a3.53,3.53,0,0,0,1-.16v2a4.7,4.7,0,0,1-1.6.24,3.49,3.49,0,0,1-2.64-1A3.83,3.83,0,0,1,54.1,77V72.34H52.16V70.46H54.1V68l2.5-.84v3.3h2.68v1.88Z"/><path class="cls-2" d="M70.66,70.46v10.1H68.2V78.94a3.25,3.25,0,0,1-1.32,1.31,4,4,0,0,1-2,.47,4.31,4.31,0,0,1-2.34-.64A4.22,4.22,0,0,1,61,78.26a6.32,6.32,0,0,1-.56-2.74A6.43,6.43,0,0,1,61,72.75a4.46,4.46,0,0,1,1.59-1.88,4.13,4.13,0,0,1,2.32-.67,4,4,0,0,1,2,.47A3.25,3.25,0,0,1,68.2,72V70.46ZM67.52,77.9a3.82,3.82,0,0,0,.68-2.42A3.89,3.89,0,0,0,67.52,73a2.58,2.58,0,0,0-3.87,0A3.94,3.94,0,0,0,63,75.52a3.69,3.69,0,0,0,.69,2.4,2.38,2.38,0,0,0,2,.84A2.3,2.3,0,0,0,67.52,77.9Z"/><path class="cls-2" d="M76.54,69.6v.86H78.8v1.88H76.54v8.22H74V72.34H72.12V70.46H74v-1A3.89,3.89,0,0,1,75,66.71a3.4,3.4,0,0,1,2.61-1,4.53,4.53,0,0,1,1.58.24v2a4.12,4.12,0,0,0-1-.14Q76.54,67.82,76.54,69.6Z"/><path class="cls-2" d="M82.49,80.08a4.37,4.37,0,0,1-1.8-1.83,6.49,6.49,0,0,1,0-5.58,4.37,4.37,0,0,1,1.8-1.83,5.56,5.56,0,0,1,2.71-.64,5.46,5.46,0,0,1,2.68.64,4.39,4.39,0,0,1,1.79,1.83,6.49,6.49,0,0,1,0,5.58,4.39,4.39,0,0,1-1.79,1.83,5.46,5.46,0,0,1-2.68.64A5.55,5.55,0,0,1,82.49,80.08Zm4.64-2.15a4.86,4.86,0,0,0,0-4.94,2.62,2.62,0,0,0-3.86,0,4.86,4.86,0,0,0,0,4.94,2.34,2.34,0,0,0,1.93.83A2.36,2.36,0,0,0,87.13,77.93Z"/><path class="cls-2" d="M98.9,70.38l0,2.28a3.48,3.48,0,0,0-1.32-.26,2.5,2.5,0,0,0-2,.74,2.81,2.81,0,0,0-.67,2v5.46H92.46V73.32a22.94,22.94,0,0,0-.16-2.86h2.34l.2,1.78a3,3,0,0,1,1.2-1.5,3.39,3.39,0,0,1,1.86-.52A2.81,2.81,0,0,1,98.9,70.38Z"/><path class="cls-2" d="M114.78,71.23a4.88,4.88,0,0,1,.84,3.13v6.2h-2.5V74.44a3,3,0,0,0-.39-1.73,1.5,1.5,0,0,0-1.29-.53,2,2,0,0,0-1.63.73,3.11,3.11,0,0,0-.59,2v5.64h-2.5V74.44a2.86,2.86,0,0,0-.41-1.72,1.51,1.51,0,0,0-1.29-.54,2,2,0,0,0-1.64.73,3.07,3.07,0,0,0-.6,2v5.64H100.3V73.32a22.94,22.94,0,0,0-.16-2.86h2.34l.18,1.6a3.14,3.14,0,0,1,1.27-1.38,3.74,3.74,0,0,1,1.91-.48,2.88,2.88,0,0,1,3,1.92,3.49,3.49,0,0,1,1.37-1.41,3.93,3.93,0,0,1,2-.51A3.11,3.11,0,0,1,114.78,71.23Z"/><path class="cls-2" d="M127.94,70.46v10.1h-2.46V78.94a3.25,3.25,0,0,1-1.32,1.31,4,4,0,0,1-2,.47,4.31,4.31,0,0,1-2.34-.64,4.22,4.22,0,0,1-1.58-1.82,6.32,6.32,0,0,1-.56-2.74,6.43,6.43,0,0,1,.57-2.77,4.46,4.46,0,0,1,1.59-1.88,4.13,4.13,0,0,1,2.32-.67,4,4,0,0,1,2,.47A3.25,3.25,0,0,1,125.48,72V70.46ZM124.8,77.9a3.82,3.82,0,0,0,.68-2.42A3.89,3.89,0,0,0,124.8,73a2.58,2.58,0,0,0-3.87,0,3.94,3.94,0,0,0-.69,2.47,3.69,3.69,0,0,0,.69,2.4,2.38,2.38,0,0,0,2,.84A2.3,2.3,0,0,0,124.8,77.9Z"/><path class="cls-2" d="M39.34,88h3.82l-7.6,14.24h-3L27.2,88h3.9l3.38,9.58Z"/><path class="cls-2" d="M42.64,102.26l.8-10.16h3.62l-.8,10.16Zm1.1-15.14h3.8l-.26,3.26H43.5Z"/><path class="cls-2" d="M56.8,92.08l-.24,3.3a3.71,3.71,0,0,0-1.68-.4,2.67,2.67,0,0,0-1.72.5,2.3,2.3,0,0,0-.72,1.68l-.4,5.1H48.42L49,95q.08-1.4.08-2.1t0-.82h3.42l.06,1.44a3,3,0,0,1,1.27-1.23,3.85,3.85,0,0,1,1.83-.45A2.46,2.46,0,0,1,56.8,92.08Z"/><path class="cls-2" d="M62.94,98a1.32,1.32,0,0,0,.35,1.09,1.43,1.43,0,0,0,1,.37,4.77,4.77,0,0,0,1-.14l-.24,2.76a5.18,5.18,0,0,1-1.92.3,3.84,3.84,0,0,1-2.88-1,3.89,3.89,0,0,1-1-2.83c0-.24,0-.42,0-.54l.26-3.26h-1.9l.22-2.68h1.9L60,89.8l3.72-1.16-.28,3.46h2.44l-.2,2.68H63.2Z"/><path class="cls-2" d="M77.44,92.1l-.8,10.16H73.1l.1-1.14a3.42,3.42,0,0,1-1.34,1,4.66,4.66,0,0,1-1.8.34,3.28,3.28,0,0,1-2.52-.92,3.82,3.82,0,0,1-.86-2.7c0-.16,0-.41,0-.76l.44-5.94h3.66l-.48,5.72a2.12,2.12,0,0,0,.26,1.35,1.17,1.17,0,0,0,1,.47,1.48,1.48,0,0,0,1.2-.53,2.47,2.47,0,0,0,.5-1.45l.48-5.56Z"/><path class="cls-2" d="M90.3,92.1l-.8,10.16H85.92l.1-1.14a3.18,3.18,0,0,1-1.24,1,4.12,4.12,0,0,1-1.7.34,4.29,4.29,0,0,1-2.26-.59,4,4,0,0,1-1.53-1.69,5.76,5.76,0,0,1-.55-2.6,6.8,6.8,0,0,1,.62-3,4.88,4.88,0,0,1,1.73-2,4.5,4.5,0,0,1,2.53-.73,3.51,3.51,0,0,1,3,1.42l.1-1.14ZM85.8,99a3.22,3.22,0,0,0,.54-1.94,3,3,0,0,0-.5-1.89,1.73,1.73,0,0,0-1.44-.63,1.81,1.81,0,0,0-1.52.74,3.28,3.28,0,0,0-.56,2,2.74,2.74,0,0,0,.53,1.81,1.84,1.84,0,0,0,1.49.63A1.72,1.72,0,0,0,85.8,99Z"/><path class="cls-2" d="M91.66,102.26l1.18-14.72h3.62l-1.18,14.72Z"/><path class="cls-1" d="M233.5,20.87a9.48,9.48,0,0,1,3.85-3.79,11.57,11.57,0,0,1,5.53-1.31,21.2,21.2,0,0,1,2.48.14q1.21.14,2.72.4,1.18.18,1.49.21l-.34,6.2h-3l-1-4.17a1.75,1.75,0,0,0-.9-.52,6.26,6.26,0,0,0-1.77-.2,3.92,3.92,0,0,0-2.62,1,6.11,6.11,0,0,0-1.73,2.85,15.39,15.39,0,0,0-.61,4.66,17.64,17.64,0,0,0,.56,4.65,7.26,7.26,0,0,0,1.73,3.24,3.9,3.9,0,0,0,2.9,1.19,4.68,4.68,0,0,0,1.73-.25,2.62,2.62,0,0,0,1-.65l1.37-3.05,2.76.26L249,36.36a6.08,6.08,0,0,0-.86.14l-1,.28q-1.1.32-2.06.5a13.13,13.13,0,0,1-2.38.18,12.08,12.08,0,0,1-5.83-1.29,8.34,8.34,0,0,1-3.57-3.69,12.79,12.79,0,0,1-1.2-5.75A11.7,11.7,0,0,1,233.5,20.87Z"/><path class="cls-1" d="M263.75,22.2A6.39,6.39,0,0,1,266.41,25a9.35,9.35,0,0,1,.92,4.28,8.73,8.73,0,0,1-1.11,4.56,6.94,6.94,0,0,1-3,2.75,9.21,9.21,0,0,1-4.08.9,8.5,8.5,0,0,1-4.16-1,6.38,6.38,0,0,1-2.66-2.76,9.34,9.34,0,0,1-.92-4.28A8.54,8.54,0,0,1,252.55,25a7.19,7.19,0,0,1,3-2.79,8.91,8.91,0,0,1,4.06-.93A8.5,8.5,0,0,1,263.75,22.2Zm-2.13,2.65a2.41,2.41,0,0,0-4.46-.15,10.19,10.19,0,0,0-.73,4.42,12,12,0,0,0,.72,4.72,2.38,2.38,0,0,0,2.28,1.59A2.29,2.29,0,0,0,261.6,34a10.45,10.45,0,0,0,.7-4.42A12.39,12.39,0,0,0,261.62,24.85Z"/><path class="cls-1" d="M271,35.26V16.36L268.92,16V14.24l5.75-.7h.07l.85.63V35.26l1.92.28v1.91h-8.41V35.54Z"/><path class="cls-1" d="M280.18,25A6.82,6.82,0,0,1,283,22.22a8.52,8.52,0,0,1,4.16-1,6.78,6.78,0,0,1,4.6,1.4,5.26,5.26,0,0,1,1.67,4,13.36,13.36,0,0,1-.21,2.76H284a6.4,6.4,0,0,0,1.29,3.88,3.76,3.76,0,0,0,3,1.27,7.31,7.31,0,0,0,2.23-.37,7.93,7.93,0,0,0,1.88-.84l.83,1.76a6.13,6.13,0,0,1-1.47,1.07,10.7,10.7,0,0,1-2.23.9,9.09,9.09,0,0,1-2.53.36,8.62,8.62,0,0,1-4.38-1A6.09,6.09,0,0,1,280,33.64a10.17,10.17,0,0,1-.82-4.23A9.09,9.09,0,0,1,280.18,25Zm8.67,2.43v-1a4.55,4.55,0,0,0-.51-2.36,1.87,1.87,0,0,0-1.74-.84,2.57,2.57,0,0,0-1.38.35,2.42,2.42,0,0,0-.91,1.28,8.46,8.46,0,0,0-.38,2.59Z"/><path class="cls-1" d="M302.66,31.58a11.62,11.62,0,0,1-2.33-.2,3.27,3.27,0,0,0-.27.73,2.85,2.85,0,0,0-.1.67,1.3,1.3,0,0,0,.31.95,1.77,1.77,0,0,0,1,.44,10.88,10.88,0,0,0,1.86.12H306a7.75,7.75,0,0,1,4.55,1.1,3.92,3.92,0,0,1,1.51,3.4,4.81,4.81,0,0,1-1.29,3.3,8.44,8.44,0,0,1-3.39,2.23,12.49,12.49,0,0,1-4.43.79h0q-4,0-5.82-1.23a3.79,3.79,0,0,1-1.84-3.29,3.91,3.91,0,0,1,.77-2.3A4.54,4.54,0,0,1,298,36.69a2.61,2.61,0,0,1-1.37-2.4,3.23,3.23,0,0,1,.63-1.88A4.39,4.39,0,0,1,298.93,31a4.68,4.68,0,0,1-2.38-1.78,5,5,0,0,1-.77-2.81,4.13,4.13,0,0,1,1-2.74,6.19,6.19,0,0,1,2.65-1.79,10.36,10.36,0,0,1,3.66-.62h0q3.66,0,5.33,1.42a4.05,4.05,0,0,1,1.29-1,4,4,0,0,1,1.87-.45h.88v3.47h-2.77a5.25,5.25,0,0,1,.21,1.53,4.63,4.63,0,0,1-.85,2.8,5.53,5.53,0,0,1-2.5,1.88,10.27,10.27,0,0,1-3.88.67ZM299.8,39.5q0,3.41,3.64,3.41h0a4.81,4.81,0,0,0,1.83-.36,3.35,3.35,0,0,0,1.42-1.07,2.76,2.76,0,0,0,.55-1.74,3,3,0,0,0-.26-1.37,1.53,1.53,0,0,0-.89-.72,5.41,5.41,0,0,0-1.74-.22h-2.62a13,13,0,0,1-1.55-.1A5.06,5.06,0,0,0,299.8,39.5Zm3.12-16.36a2.23,2.23,0,0,0-1.86.77,3.72,3.72,0,0,0-.61,2.33,4.42,4.42,0,0,0,.6,2.5,2.18,2.18,0,0,0,1.95.88h0a2,2,0,0,0,1.79-.84,4.43,4.43,0,0,0,.54-2.4,4.24,4.24,0,0,0-.57-2.47,2.12,2.12,0,0,0-1.84-.78Z"/><path class="cls-1" d="M315.69,35.26V24.33l-1.92-.58V21.57l5.61-.71h.07l.88.63V35.27l1.82.27v1.91h-8.37V35.54Zm-.38-20.39a2.46,2.46,0,0,1,.94-1,2.78,2.78,0,0,1,1.47-.38h0a2.77,2.77,0,0,1,1.39.33,2.29,2.29,0,0,1,.88.87,2.38,2.38,0,0,1,.31,1.19,2.62,2.62,0,0,1-2.86,2.77h0a2.52,2.52,0,0,1-1.27-.31,2.28,2.28,0,0,1-.87-.85,2.33,2.33,0,0,1-.31-1.2A3.11,3.11,0,0,1,315.31,14.87Z"/><path class="cls-1" d="M336.16,22.2A6.39,6.39,0,0,1,338.82,25a9.35,9.35,0,0,1,.92,4.28,8.73,8.73,0,0,1-1.11,4.56,6.94,6.94,0,0,1-3,2.75,9.21,9.21,0,0,1-4.08.9,8.5,8.5,0,0,1-4.16-1,6.38,6.38,0,0,1-2.66-2.76,9.34,9.34,0,0,1-.92-4.28A8.54,8.54,0,0,1,325,25a7.19,7.19,0,0,1,3-2.79,8.91,8.91,0,0,1,4.06-.93A8.5,8.5,0,0,1,336.16,22.2ZM334,24.85a2.41,2.41,0,0,0-4.46-.15,10.19,10.19,0,0,0-.73,4.42,12,12,0,0,0,.72,4.72,2.38,2.38,0,0,0,2.28,1.59A2.29,2.29,0,0,0,334,34a10.45,10.45,0,0,0,.7-4.42A12.39,12.39,0,0,0,334,24.85Z"/><path class="cls-1" d="M350.77,25.48a7.57,7.57,0,0,1,3-3.08,9.16,9.16,0,0,1,4.71-1.15,9,9,0,0,1,1.81.2V16.76l-2.75-.37V14.57L363.8,14h.11l.9.67V35.11h1.52V37a18.6,18.6,0,0,1-3.67.47,3.71,3.71,0,0,1-1.1-.13,1,1,0,0,1-.61-.48,2.08,2.08,0,0,1-.21-1V35.2a5.69,5.69,0,0,1-2,1.63,5.81,5.81,0,0,1-2.66.63,6.29,6.29,0,0,1-3.23-.83,5.73,5.73,0,0,1-2.25-2.56,9.92,9.92,0,0,1-.83-4.32A9.15,9.15,0,0,1,350.77,25.48Zm9.48-1.63a1.45,1.45,0,0,0-.74-.45,3.85,3.85,0,0,0-1.22-.19,3,3,0,0,0-2.63,1.48,8.83,8.83,0,0,0-1,4.78,7.53,7.53,0,0,0,.85,4,2.61,2.61,0,0,0,2.29,1.32,3.26,3.26,0,0,0,1.42-.3,3.2,3.2,0,0,0,1-.73Z"/><path class="cls-1" d="M369,25a6.82,6.82,0,0,1,2.78-2.82,8.52,8.52,0,0,1,4.16-1,6.78,6.78,0,0,1,4.6,1.4,5.26,5.26,0,0,1,1.67,4,13.36,13.36,0,0,1-.21,2.76h-9.19a6.4,6.4,0,0,0,1.29,3.88,3.76,3.76,0,0,0,3,1.27,7.31,7.31,0,0,0,2.23-.37,7.93,7.93,0,0,0,1.88-.84l.83,1.76a6.13,6.13,0,0,1-1.47,1.07,10.7,10.7,0,0,1-2.23.9,9.09,9.09,0,0,1-2.53.36,8.62,8.62,0,0,1-4.38-1,6.09,6.09,0,0,1-2.55-2.81,10.17,10.17,0,0,1-.82-4.23A9.09,9.09,0,0,1,369,25Zm8.67,2.43v-1a4.55,4.55,0,0,0-.51-2.36,1.87,1.87,0,0,0-1.74-.84,2.57,2.57,0,0,0-1.38.35,2.42,2.42,0,0,0-.91,1.28,8.46,8.46,0,0,0-.38,2.59Z"/><path class="cls-1" d="M234.63,70.14v-17l-2.26-.41v-2h15.75l.4,5H246.2l-1-3h-5.75v7.38h3.61l.53-2.39h2.08v7.24H243.6l-.5-2.55h-3.64v7.64h6.4l1.78-3.8,2.43.69-.74,5.38H232.41V70.51Z"/><path class="cls-1" d="M254.72,67.54l.73,2.11a1.91,1.91,0,0,0,1,.61,4.56,4.56,0,0,0,1.57.28,2.77,2.77,0,0,0,1.82-.5,1.61,1.61,0,0,0,.58-1.28,1.47,1.47,0,0,0-.45-1,4.44,4.44,0,0,0-1.18-.84q-.73-.37-2.14-1l-.74-.33a7.68,7.68,0,0,1-3-2,4.39,4.39,0,0,1-1-2.92,3.62,3.62,0,0,1,.78-2.28A5.16,5.16,0,0,1,255,56.79a9.31,9.31,0,0,1,3.44-.58,13.56,13.56,0,0,1,2.32.17q1,.17,2.13.47a8,8,0,0,0,1,.24v3.74h-2.56l-.74-2a1.35,1.35,0,0,0-.71-.53,3.36,3.36,0,0,0-1.3-.23,2.86,2.86,0,0,0-1.75.46,1.44,1.44,0,0,0-.61,1.21,1.55,1.55,0,0,0,.39,1.07,3.35,3.35,0,0,0,1,.75q.59.31,1.67.75l.67.27a20.24,20.24,0,0,1,2.58,1.27,5.63,5.63,0,0,1,1.7,1.57,3.87,3.87,0,0,1,.68,2.3,4.14,4.14,0,0,1-.73,2.39,4.83,4.83,0,0,1-2.23,1.68,9.75,9.75,0,0,1-3.71.62,13.68,13.68,0,0,1-2.8-.26q-1.26-.26-2.65-.69-.29-.1-.78-.23V67.54Z"/><path class="cls-1" d="M277.22,56.37q.84.16,1.85.45a8.33,8.33,0,0,0,1.07.27l-.2,4.82h-2.86L276.33,59a1,1,0,0,0-.55-.57,2.36,2.36,0,0,0-1-.19q-3,0-3,5.4a9.92,9.92,0,0,0,.47,3.29,4.17,4.17,0,0,0,1.31,2,3.08,3.08,0,0,0,1.94.65,7.12,7.12,0,0,0,2.16-.3,8.19,8.19,0,0,0,1.74-.78l.78,1.65a5.6,5.6,0,0,1-1.29,1,9.09,9.09,0,0,1-2,.89,8.27,8.27,0,0,1-2.45.36,8.13,8.13,0,0,1-4.24-1,6.13,6.13,0,0,1-2.48-2.78,10,10,0,0,1-.82-4.11,8.89,8.89,0,0,1,1-4.34,7.3,7.3,0,0,1,2.92-2.94,8.92,8.92,0,0,1,4.4-1A10.38,10.38,0,0,1,277.22,56.37Z"/><path class="cls-1" d="M284.07,70.34V59.71l-1.72-.57V56.89l4.77-.65h.07l.84.63v.83L288,59.94H288a5,5,0,0,1,.9-1.52,6.7,6.7,0,0,1,1.8-1.54,4.54,4.54,0,0,1,2.39-.66,2.94,2.94,0,0,1,.65.07,1.62,1.62,0,0,1,.46.17v5a3.49,3.49,0,0,0-1-.6,3.73,3.73,0,0,0-1.26-.19,6.77,6.77,0,0,0-1.93.26,3.64,3.64,0,0,0-1.34.66v8.77l3.36.28v1.8H282.2V70.6Z"/><path class="cls-1" d="M297.86,70.22V59.3l-1.92-.58V56.54l5.61-.71h.07l.88.63V70.24l1.82.27v1.91H296V70.51Zm-.38-20.39a2.46,2.46,0,0,1,.94-1,2.78,2.78,0,0,1,1.47-.38h0a2.77,2.77,0,0,1,1.39.33,2.29,2.29,0,0,1,.88.87,2.38,2.38,0,0,1,.31,1.19,2.62,2.62,0,0,1-2.86,2.77h0a2.52,2.52,0,0,1-1.27-.31,2.28,2.28,0,0,1-.87-.85,2.33,2.33,0,0,1-.31-1.2A3.11,3.11,0,0,1,297.49,49.83Z"/><path class="cls-1" d="M305.12,51.31V49.62l5.63-.7h.07l.94.58V58a6.12,6.12,0,0,1,1.83-1.28,5.5,5.5,0,0,1,2.37-.51,6.43,6.43,0,0,1,3.21.8,5.55,5.55,0,0,1,2.25,2.51,10,10,0,0,1,.83,4.34,9,9,0,0,1-1.05,4.37,7.68,7.68,0,0,1-3,3.07,9.17,9.17,0,0,1-4.61,1.12,21.07,21.07,0,0,1-3-.2,14.3,14.3,0,0,1-2.21-.47,4.61,4.61,0,0,1-1.1-.46V51.67ZM311.76,70a1.09,1.09,0,0,0,.68.47,4,4,0,0,0,1.27.18,2.79,2.79,0,0,0,1.89-.71,4.64,4.64,0,0,0,1.27-2.14,11.72,11.72,0,0,0,.46-3.52,7.42,7.42,0,0,0-.84-4A2.63,2.63,0,0,0,314.17,59a3.06,3.06,0,0,0-1.39.32,3.18,3.18,0,0,0-1,.75Z"/><path class="cls-1" d="M333.49,61.64a3.31,3.31,0,0,0-.24-1.37,1.52,1.52,0,0,0-.86-.76,5,5,0,0,0-1.79-.25,12,12,0,0,0-2.62.26,20,20,0,0,0-2.35.69h0l-.92-1.72a8,8,0,0,1,1.56-.93,14.79,14.79,0,0,1,2.55-.94,11.07,11.07,0,0,1,3-.41,9.23,9.23,0,0,1,3.58.56,3.46,3.46,0,0,1,1.86,1.78,8.09,8.09,0,0,1,.55,3.29v8.31h1.55V72q-.73.16-1.82.31a13.78,13.78,0,0,1-1.92.16,3.83,3.83,0,0,1-1.16-.14.94.94,0,0,1-.58-.48,2.4,2.4,0,0,1-.17-1v-.44a6.25,6.25,0,0,1-1.89,1.45,5.82,5.82,0,0,1-2.75.63,5.52,5.52,0,0,1-2.5-.56,4.34,4.34,0,0,1-1.8-1.66,5,5,0,0,1-.67-2.66,4.37,4.37,0,0,1,2.5-4.05,14.61,14.61,0,0,1,6.93-1.36Zm0,2.39a5.57,5.57,0,0,0-3.44.84A2.61,2.61,0,0,0,329,67a3,3,0,0,0,.6,2,2,2,0,0,0,1.63.7,3.25,3.25,0,0,0,1.16-.26,3.64,3.64,0,0,0,1.1-.65Z"/><path class="cls-1" d="M342.88,70.32V59.71l-1.75-.55V56.81l5.14-.65h.07l.78.63v1l0,.65a8.72,8.72,0,0,1,2.58-1.6,8.21,8.21,0,0,1,3.21-.66,5.32,5.32,0,0,1,2.78.62,3.49,3.49,0,0,1,1.47,2,12.35,12.35,0,0,1,.45,3.72v7.75l1.71.25v1.87h-7.91V70.57l1.49-.26V62.57a9.72,9.72,0,0,0-.18-2.15,1.91,1.91,0,0,0-.67-1.13,2.3,2.3,0,0,0-1.39-.36,4,4,0,0,0-1.64.37,5.88,5.88,0,0,0-1.4.87V70.31l1.65.26v1.85h-8V70.57Z"/><path class="cls-1" d="M373.15,57.17a6.39,6.39,0,0,1,2.66,2.76,9.35,9.35,0,0,1,.92,4.28,8.73,8.73,0,0,1-1.11,4.56,6.94,6.94,0,0,1-3,2.75,9.21,9.21,0,0,1-4.08.9,8.5,8.5,0,0,1-4.16-1,6.38,6.38,0,0,1-2.66-2.76,9.34,9.34,0,0,1-.92-4.28A8.54,8.54,0,0,1,362,59.93a7.19,7.19,0,0,1,3-2.79,8.91,8.91,0,0,1,4.06-.93A8.5,8.5,0,0,1,373.15,57.17ZM371,59.82a2.41,2.41,0,0,0-4.46-.15,10.19,10.19,0,0,0-.73,4.42,12,12,0,0,0,.72,4.72,2.38,2.38,0,0,0,2.28,1.59A2.29,2.29,0,0,0,371,69a10.45,10.45,0,0,0,.7-4.42A12.39,12.39,0,0,0,371,59.82Z"/><path class="cls-1" d="M381.87,67.54l.73,2.11a1.91,1.91,0,0,0,1,.61,4.56,4.56,0,0,0,1.57.28A2.77,2.77,0,0,0,387,70a1.61,1.61,0,0,0,.58-1.28,1.47,1.47,0,0,0-.45-1,4.44,4.44,0,0,0-1.18-.84q-.73-.37-2.14-1l-.74-.33a7.68,7.68,0,0,1-3-2,4.39,4.39,0,0,1-1-2.92,3.62,3.62,0,0,1,.78-2.28,5.16,5.16,0,0,1,2.24-1.58,9.31,9.31,0,0,1,3.44-.58,13.56,13.56,0,0,1,2.32.17q1,.17,2.13.47a8,8,0,0,0,1,.24v3.74h-2.56l-.74-2a1.35,1.35,0,0,0-.71-.53,3.36,3.36,0,0,0-1.3-.23,2.86,2.86,0,0,0-1.75.46,1.44,1.44,0,0,0-.61,1.21,1.55,1.55,0,0,0,.39,1.07,3.35,3.35,0,0,0,1,.75q.59.31,1.67.75l.67.27a20.24,20.24,0,0,1,2.58,1.27,5.63,5.63,0,0,1,1.7,1.57,3.87,3.87,0,0,1,.68,2.3,4.14,4.14,0,0,1-.73,2.39,4.83,4.83,0,0,1-2.23,1.68,9.75,9.75,0,0,1-3.71.62,13.68,13.68,0,0,1-2.8-.26q-1.26-.26-2.65-.69-.29-.1-.78-.23V67.54Z"/><path class="cls-1" d="M403.13,60.44a7.57,7.57,0,0,1,3-3.08,9.16,9.16,0,0,1,4.71-1.15,9,9,0,0,1,1.81.2V51.73l-2.75-.37V49.54l6.29-.61h.11l.9.67V70.08h1.52V72a18.6,18.6,0,0,1-3.67.47,3.71,3.71,0,0,1-1.1-.13,1,1,0,0,1-.61-.48,2.08,2.08,0,0,1-.21-1v-.63a5.69,5.69,0,0,1-2,1.63,5.81,5.81,0,0,1-2.66.63,6.29,6.29,0,0,1-3.23-.83A5.73,5.73,0,0,1,403,69a9.92,9.92,0,0,1-.83-4.32A9.15,9.15,0,0,1,403.13,60.44Zm9.48-1.63a1.45,1.45,0,0,0-.74-.45,3.85,3.85,0,0,0-1.22-.19A3,3,0,0,0,408,59.66a8.83,8.83,0,0,0-1,4.78,7.53,7.53,0,0,0,.85,4,2.61,2.61,0,0,0,2.29,1.32,3.26,3.26,0,0,0,1.42-.3,3.2,3.2,0,0,0,1-.73Z"/><path class="cls-1" d="M421.4,60a6.82,6.82,0,0,1,2.78-2.82,8.52,8.52,0,0,1,4.16-1,6.78,6.78,0,0,1,4.6,1.4,5.26,5.26,0,0,1,1.67,4,13.36,13.36,0,0,1-.21,2.76H425.2a6.4,6.4,0,0,0,1.29,3.88,3.76,3.76,0,0,0,3,1.27,7.31,7.31,0,0,0,2.23-.37,7.93,7.93,0,0,0,1.88-.84l.83,1.76a6.13,6.13,0,0,1-1.47,1.07,10.7,10.7,0,0,1-2.23.9,9.09,9.09,0,0,1-2.53.36,8.62,8.62,0,0,1-4.38-1,6.09,6.09,0,0,1-2.55-2.81,10.17,10.17,0,0,1-.82-4.23A9.09,9.09,0,0,1,421.4,60Zm8.67,2.43v-1a4.55,4.55,0,0,0-.51-2.36,1.87,1.87,0,0,0-1.74-.84,2.57,2.57,0,0,0-1.38.35,2.42,2.42,0,0,0-.91,1.28,8.46,8.46,0,0,0-.38,2.59Z"/><path class="cls-1" d="M233.5,90.8A9.48,9.48,0,0,1,237.35,87a11.57,11.57,0,0,1,5.53-1.31,21.2,21.2,0,0,1,2.48.14q1.21.14,2.72.4,1.18.18,1.49.21l-.34,6.2h-3l-1-4.17a1.75,1.75,0,0,0-.9-.52,6.26,6.26,0,0,0-1.77-.2,3.92,3.92,0,0,0-2.62,1,6.11,6.11,0,0,0-1.73,2.85,15.39,15.39,0,0,0-.61,4.66,17.64,17.64,0,0,0,.56,4.65,7.26,7.26,0,0,0,1.73,3.24,3.9,3.9,0,0,0,2.9,1.19,4.68,4.68,0,0,0,1.73-.25,2.62,2.62,0,0,0,1-.65l1.37-3.05,2.76.26-.54,4.68a6.08,6.08,0,0,0-.86.14l-1,.28q-1.1.32-2.06.5a13.13,13.13,0,0,1-2.38.18,12.08,12.08,0,0,1-5.83-1.29,8.34,8.34,0,0,1-3.57-3.69,12.79,12.79,0,0,1-1.2-5.75A11.7,11.7,0,0,1,233.5,90.8Z"/><path class="cls-1" d="M260.8,96.61a3.31,3.31,0,0,0-.24-1.37,1.52,1.52,0,0,0-.86-.76,5,5,0,0,0-1.79-.25,12,12,0,0,0-2.62.26,20,20,0,0,0-2.35.69h0L252,93.45a8,8,0,0,1,1.56-.93,14.79,14.79,0,0,1,2.55-.94,11.07,11.07,0,0,1,3-.41,9.23,9.23,0,0,1,3.58.56,3.46,3.46,0,0,1,1.86,1.78,8.09,8.09,0,0,1,.55,3.29v8.31h1.55v1.81q-.73.16-1.82.31a13.78,13.78,0,0,1-1.92.16,3.83,3.83,0,0,1-1.16-.14.94.94,0,0,1-.58-.48,2.4,2.4,0,0,1-.17-1v-.44a6.25,6.25,0,0,1-1.89,1.45,5.82,5.82,0,0,1-2.75.63,5.52,5.52,0,0,1-2.5-.56,4.34,4.34,0,0,1-1.8-1.66,5,5,0,0,1-.67-2.66,4.37,4.37,0,0,1,2.5-4.05,14.61,14.61,0,0,1,6.93-1.36Zm0,2.39a5.57,5.57,0,0,0-3.44.84A2.61,2.61,0,0,0,256.3,102a3,3,0,0,0,.6,2,2,2,0,0,0,1.63.7,3.25,3.25,0,0,0,1.16-.26,3.64,3.64,0,0,0,1.1-.65Z"/><path class="cls-1" d="M267.77,93.59V91.93l1-.42a5.8,5.8,0,0,0,.7-.34,4.52,4.52,0,0,0,.91-1.45q.25-.58.55-1.47t.5-1.6H274l.13,4.54h4.27v2.4h-4.24v7.57a21.56,21.56,0,0,0,.08,2.28,1.14,1.14,0,0,0,.35.82,1.75,1.75,0,0,0,1,.19h0a9.79,9.79,0,0,0,2.66-.41h0l.61,1.75a5.7,5.7,0,0,1-1.4.78,11.66,11.66,0,0,1-2,.6,10,10,0,0,1-2.11.23h0a4.18,4.18,0,0,1-2.88-.86,3.42,3.42,0,0,1-.95-2.66V93.59Z"/><path class="cls-1" d="M289.21,96.61a3.31,3.31,0,0,0-.24-1.37,1.52,1.52,0,0,0-.86-.76,5,5,0,0,0-1.79-.25,12,12,0,0,0-2.62.26,20,20,0,0,0-2.35.69h0l-.92-1.72a8,8,0,0,1,1.56-.93,14.79,14.79,0,0,1,2.55-.94,11.07,11.07,0,0,1,3-.41,9.23,9.23,0,0,1,3.58.56,3.46,3.46,0,0,1,1.86,1.78,8.09,8.09,0,0,1,.55,3.29v8.31H295v1.81q-.73.16-1.82.31a13.78,13.78,0,0,1-1.92.16,3.83,3.83,0,0,1-1.16-.14.94.94,0,0,1-.58-.48,2.4,2.4,0,0,1-.17-1v-.44a6.25,6.25,0,0,1-1.89,1.45,5.82,5.82,0,0,1-2.75.63,5.52,5.52,0,0,1-2.5-.56,4.34,4.34,0,0,1-1.8-1.66,5,5,0,0,1-.67-2.66,4.37,4.37,0,0,1,2.5-4.05,14.61,14.61,0,0,1,6.93-1.36Zm0,2.39a5.57,5.57,0,0,0-3.44.84,2.61,2.61,0,0,0-1.06,2.13,3,3,0,0,0,.6,2,2,2,0,0,0,1.63.7,3.25,3.25,0,0,0,1.16-.26,3.64,3.64,0,0,0,1.1-.65Z"/><path class="cls-1" d="M298.6,105.29V94.67l-1.75-.55V91.77l5.14-.65h.07l.77.63v1.71a6.71,6.71,0,0,1,1.67-1.14,11.46,11.46,0,0,1,2.16-.83,7.53,7.53,0,0,1,2-.31,5.31,5.31,0,0,1,2.55.53,3.38,3.38,0,0,1,1.47,1.66,8.25,8.25,0,0,1,2.5-1.55,7.88,7.88,0,0,1,3.07-.64,5.16,5.16,0,0,1,2.8.66,3.69,3.69,0,0,1,1.49,2,11.77,11.77,0,0,1,.46,3.61v7.8l1.78.26v1.83h-7.78v-1.83l1.32-.28V97.64a9.32,9.32,0,0,0-.21-2.22,2,2,0,0,0-.71-1.16,2.43,2.43,0,0,0-1.43-.36,3.54,3.54,0,0,0-1.46.34,6.9,6.9,0,0,0-1.37.81,15.39,15.39,0,0,1,.18,2.56v7.66l1.74.28v1.83h-7.94v-1.83l1.51-.28V97.54a9.72,9.72,0,0,0-.18-2.15,1.92,1.92,0,0,0-.67-1.13,2.3,2.3,0,0,0-1.39-.36,4.12,4.12,0,0,0-1.64.35,5.22,5.22,0,0,0-1.39.85v10.17l1.64.28v1.83H297v-1.83Z"/><path class="cls-1" d="M335.64,96.61a3.31,3.31,0,0,0-.24-1.37,1.52,1.52,0,0,0-.86-.76,5,5,0,0,0-1.79-.25,12,12,0,0,0-2.62.26,20,20,0,0,0-2.35.69h0l-.92-1.72a8,8,0,0,1,1.56-.93,14.79,14.79,0,0,1,2.55-.94,11.07,11.07,0,0,1,3-.41,9.23,9.23,0,0,1,3.58.56,3.46,3.46,0,0,1,1.86,1.78,8.09,8.09,0,0,1,.55,3.29v8.31h1.55v1.81q-.73.16-1.82.31a13.78,13.78,0,0,1-1.92.16,3.83,3.83,0,0,1-1.16-.14.94.94,0,0,1-.58-.48,2.4,2.4,0,0,1-.17-1v-.44a6.25,6.25,0,0,1-1.89,1.45,5.82,5.82,0,0,1-2.75.63,5.52,5.52,0,0,1-2.5-.56,4.34,4.34,0,0,1-1.8-1.66,5,5,0,0,1-.67-2.66,4.37,4.37,0,0,1,2.5-4.05,14.61,14.61,0,0,1,6.93-1.36Zm0,2.39a5.57,5.57,0,0,0-3.44.84,2.61,2.61,0,0,0-1.06,2.13,3,3,0,0,0,.6,2,2,2,0,0,0,1.63.7,3.25,3.25,0,0,0,1.16-.26,3.64,3.64,0,0,0,1.1-.65Z"/><path class="cls-1" d="M345,105.31V94.68l-1.72-.57V91.86l4.77-.65h.07l.84.63v.83l-.07,2.25H349a5,5,0,0,1,.9-1.52,6.7,6.7,0,0,1,1.8-1.54,4.54,4.54,0,0,1,2.39-.66,2.94,2.94,0,0,1,.65.07,1.62,1.62,0,0,1,.46.17v5a3.49,3.49,0,0,0-1-.6,3.73,3.73,0,0,0-1.26-.19,6.77,6.77,0,0,0-1.93.26,3.64,3.64,0,0,0-1.34.66v8.77l3.36.28v1.8h-9.85v-1.82Z"/><path class="cls-1" d="M367.17,91.34q.84.16,1.85.45a8.33,8.33,0,0,0,1.07.27l-.2,4.82H367L366.29,94a1,1,0,0,0-.55-.57,2.36,2.36,0,0,0-1-.19q-3,0-3,5.4a9.92,9.92,0,0,0,.47,3.29,4.17,4.17,0,0,0,1.31,2,3.08,3.08,0,0,0,1.94.65,7.12,7.12,0,0,0,2.16-.3,8.19,8.19,0,0,0,1.74-.78l.78,1.65a5.6,5.6,0,0,1-1.29,1,9.09,9.09,0,0,1-2,.89,8.27,8.27,0,0,1-2.45.36,8.13,8.13,0,0,1-4.24-1,6.13,6.13,0,0,1-2.48-2.78,10,10,0,0,1-.82-4.11,8.89,8.89,0,0,1,1-4.34,7.3,7.3,0,0,1,2.92-2.94,8.92,8.92,0,0,1,4.4-1A10.38,10.38,0,0,1,367.17,91.34Z"/><path class="cls-1" d="M381.17,96.61a3.31,3.31,0,0,0-.24-1.37,1.52,1.52,0,0,0-.86-.76,5,5,0,0,0-1.79-.25,12,12,0,0,0-2.62.26,20,20,0,0,0-2.35.69h0l-.92-1.72a8,8,0,0,1,1.56-.93,14.79,14.79,0,0,1,2.55-.94,11.07,11.07,0,0,1,3-.41,9.23,9.23,0,0,1,3.58.56,3.46,3.46,0,0,1,1.86,1.78,8.09,8.09,0,0,1,.55,3.29v8.31H387v1.81q-.73.16-1.82.31a13.78,13.78,0,0,1-1.92.16,3.83,3.83,0,0,1-1.16-.14.94.94,0,0,1-.58-.48,2.4,2.4,0,0,1-.17-1v-.44a6.25,6.25,0,0,1-1.89,1.45,5.82,5.82,0,0,1-2.75.63,5.52,5.52,0,0,1-2.5-.56,4.34,4.34,0,0,1-1.8-1.66,5,5,0,0,1-.67-2.66,4.37,4.37,0,0,1,2.5-4.05,14.61,14.61,0,0,1,6.93-1.36Zm0,2.39a5.57,5.57,0,0,0-3.44.84,2.61,2.61,0,0,0-1.06,2.13,3,3,0,0,0,.6,2,2,2,0,0,0,1.63.7,3.25,3.25,0,0,0,1.16-.26,3.64,3.64,0,0,0,1.1-.65Z"/><path class="cls-1" d="M209.78,63.86a38.83,38.83,0,0,0-2.23-6.26,39.54,39.54,0,0,0-21.77-20.54h0v0A37.59,37.59,0,0,0,175,11.44a38.11,38.11,0,0,0-4.58-4,156.15,156.15,0,0,1,4.74,16.27s-8.27,13.31-6.8,14.34c1.06.74,4.2-1.81,4.44-2a15.31,15.31,0,0,0,3.3-3.6,87.8,87.8,0,0,1,1.24,14.74c-.06,15.64-.21,16.76-1,18.63-3,7.23-9.31,10.92-8.19,12.69.7,1.1,3.68.52,3.9.48a9.69,9.69,0,0,0,4.14-1.91,27,27,0,0,1-4,9.28A38.41,38.41,0,0,1,160,97c.1-2,1.24-5,1.42-7.08.44-5,.51-9.78.7-14.25.14-3.26,0-12.85,0-12.85S161.18,50.15,160.7,46c-.59-5.13-2-15.34-3-20.41s-2.58-15.41-4.25-20.3c-.4-1.17-1.28-3.11-2.24-5.1L150.65.1c.44,1.83.7,3.43.72,3.57.33,2.3,2.07,7.35,4.45,19.9A274.23,274.23,0,0,1,160,59.71c.7,12.35,1.13,18.52.43,25.4a98.63,98.63,0,0,1-7.08,27.75c6.3,0,12.19.05,17.9.13h.52a39.26,39.26,0,0,0,38-49.13Z"/><path class="cls-2" d="M160,59.71a274.23,274.23,0,0,0-4.2-36.14C153.43,11,151.7,6,151.36,3.67c0-.14-.28-1.74-.72-3.57-.71,0-1.43-.08-2.15-.09H148a37.4,37.4,0,0,0-12.36,2.1c-1.16.4-2.29.88-3.4,1.4a33.85,33.85,0,0,0,.46,7.94s5.44,8.26,4.95,8.64-2.4-1.37-3.65-2.87c-1.93-2.3-2.35-4.14-2.55-4.07-.62.2-.09,17.66,7.57,30.58,3.26,5.5,11.11,17.74,11.11,17.74s-6.81-2.85-9.49-8.12a21.84,21.84,0,0,1-2.28-7.46,35,35,0,0,0,.58,13.64c1.55,6.12,4.58,11.23,8.59,18,2.93,4.93,4.37,6.69,3.85,7.25-.84.9-6.35-1.72-9.33-6.53-2.58-4.16-2.38-8.51-2.75-8.45s-.59,4.35.38,9.26c.69,3.48,1.46,7.36,4.16,10.94,4.35,5.78,9.27,4.88,10.63,9.71.43,1.53.14,3.54-.46,7.57-.31,2.13-.71,4-1.1,5.6h.45a98.63,98.63,0,0,0,7.08-27.75C161.14,78.23,160.71,72.06,160,59.71Z"/><path class="cls-2" d="M151.23.15c1,2,1.84,3.93,2.24,5.1,1.67,4.89,3.31,15.2,4.25,20.3s2.39,15.28,3,20.41c.48,4.19,1.39,16.83,1.39,16.83s.15,9.59,0,12.85c-.19,4.47-.26,9.24-.7,14.25C161.22,92,160.08,95,160,97a38.41,38.41,0,0,0,12.24-10.62,27,27,0,0,0,4-9.28A9.69,9.69,0,0,1,172.09,79c-.22,0-3.19.62-3.9-.48-1.13-1.77,5.16-5.46,8.19-12.69.78-1.87.93-3,1-18.63a87.8,87.8,0,0,0-1.24-14.74,15.31,15.31,0,0,1-3.3,3.6c-.24.2-3.38,2.76-4.44,2-1.47-1,6.8-14.34,6.8-14.34a156.15,156.15,0,0,0-4.74-16.27A37.36,37.36,0,0,0,151.23.15Z"/></g></g></svg>